
        <svg xmlns="http://www.w3.org/2000/svg" xmlns:xlink="http://www.w3.org/1999/xlink" version="1.1" width="3171.4285714285716" 
        height="1655.7999745829773" viewBox="0 0 3171.4285714285716 1655.7999745829773">
			
			<g transform="scale(8.571428571428571) translate(10, 10)">
				<defs id="SvgjsDefs6402"></defs><g id="SvgjsG6403" featureKey="symbolFeature-0" transform="matrix(1.411676313925656,0,0,1.411676313925656,104.91652221985755,-13.552093152198076)" fill="#bf1922"><g xmlns="http://www.w3.org/2000/svg"><path fill-rule="evenodd" clip-rule="evenodd" d="M32,57.464l22.199-39.357c4.07,5.529,6.901,11.881,2.628,18.555L37.883,70.069   c-1.137,2.005-1.835,4.658-1.943,6.62C30.655,69.97,28.291,63.121,32,57.464L32,57.464z"></path><path fill-rule="evenodd" clip-rule="evenodd" d="M40.071,69.907l19.571-34.341c0.884-1.551,1.63-3.374,1.715-4.833   c4.314,5.407,7.509,11.942,3.358,18.92L47.079,80.607c-1.141,2.003-0.969,7.429,1.434,9.131   C36.994,86.482,36.092,76.888,40.071,69.907L40.071,69.907z"></path><path fill-rule="evenodd" clip-rule="evenodd" d="M48.269,24.001l-6.311,11.196l-24.836,0.102   c-1.595,0.034-3.495,0.577-4.886,1.323c3.673-8.194,8.44-13.215,14.555-12.723L48.269,24.001L48.269,24.001z"></path><path fill-rule="evenodd" clip-rule="evenodd" d="M49.718,21.562H25.202c-1.866-0.001-3.62,0.286-4.702,1.247l4.185-7.597   c2.148-3.305,6.491-5.612,9.821-5.612h12.408C50.347,9.999,54.285,13.531,49.718,21.562L49.718,21.562z"></path><path fill-rule="evenodd" clip-rule="evenodd" d="M52.54,10.109l6.586,11.526l15.686-0.173l5.373,1.127l-4.593-8.233   c-1.387-2.427-5.431-4.044-10.313-4.507L52.54,10.109L52.54,10.109z"></path><path fill-rule="evenodd" clip-rule="evenodd" d="M60.426,23.629l6.586,11.526l15.686-0.173l5.373,1.127l-4.593-8.233   c-1.387-2.427-5.431-4.044-10.313-4.507L60.426,23.629L60.426,23.629z"></path><path fill-rule="evenodd" clip-rule="evenodd" d="M76.027,37.462l11.835,21.009c0.897,1.592,1.21,1.681,2.114,0.787   c8.347-7.2,3.863-21.883-7.667-21.883L76.027,37.462L76.027,37.462z"></path><path fill-rule="evenodd" clip-rule="evenodd" d="M68.213,37.491l5.479-0.118l12.219,21.758c0.881,1.695,0.513,3.061-3.863,3.469   l-7.536-0.158l-6.969-12.929C69.507,44.067,69.363,41.006,68.213,37.491L68.213,37.491z"></path><path fill-rule="evenodd" clip-rule="evenodd" d="M52.18,75.999l6.311-11.196l24.836-0.102c1.595-0.034,3.495-0.577,4.886-1.323   c-3.673,8.194-8.44,13.215-14.555,12.723L52.18,75.999L52.18,75.999z"></path><path fill-rule="evenodd" clip-rule="evenodd" d="M50.731,78.438h24.516c1.866,0.001,3.62-0.286,4.702-1.247l-4.185,7.597   c-2.148,3.305-6.491,5.612-9.821,5.612H53.535C50.101,90.001,46.164,86.469,50.731,78.438L50.731,78.438z"></path><path fill-rule="evenodd" clip-rule="evenodd" d="M14.773,39.893l13.363,23.533c-0.859-4.198,2.452-8.87,5.702-13.278l-7.75-12.715   h-9.674C15.23,37.309,14.31,39.095,14.773,39.893L14.773,39.893z"></path><path fill-rule="evenodd" clip-rule="evenodd" d="M12.636,41.211c8.917,15.417,18.297,31.296,27.215,46.712   c0.786,1.053,2.058,2.073,3.174,2.418c-3.478,0-6.956,0-10.433,0c-3.264-0.331-6.638-2.938-9.329-7.563L7.346,55.419   c-3.743-6.434-0.353-12.1,3.627-14.921C11.914,39.897,12.314,40.654,12.636,41.211L12.636,41.211z"></path></g></g><g id="SvgjsG6404" featureKey="nameFeature-0" transform="matrix(1.365992261981613,0,0,1.365992261981613,-2.1855881402552755,118.04521387132222)" fill="#2d2d2d"><path d="M6 16 l0 7.8 l6.04 0 l0 4 l-6.04 0 l0 8.2 l7.6 0 l0 4 l-12 0 l0 -28 l12 0 l0 4 l-7.6 0 z M20.648000000000003 40 l0 -28 l6.96 0 c4.4 0 6.56 2.44 6.56 6.92 l0 14.16 c0 4.48 -2.16 6.92 -6.56 6.92 l-6.96 0 z M27.528000000000002 16 l-2.48 0 l0 20 l2.48 0 c1.4 0 2.24 -0.72 2.24 -2.72 l0 -14.56 c0 -2 -0.84 -2.72 -2.24 -2.72 z M47.896 28.4 l0 -4 l6.16 0 l0 8.88 c0 4.48 -2.24 7.04 -6.56 7.04 s-6.56 -2.56 -6.56 -7.04 l0 -14.56 c0 -4.48 2.24 -7.04 6.56 -7.04 s6.56 2.56 6.56 7.04 l0 2.72 l-4.16 0 l0 -3 c0 -2 -0.88 -2.76 -2.28 -2.76 s-2.28 0.76 -2.28 2.76 l0 15.12 c0 2 0.88 2.72 2.28 2.72 s2.28 -0.72 2.28 -2.72 l0 -5.16 l-2 0 z M65.624 16 l0 7.8 l6.04 0 l0 4 l-6.04 0 l0 8.2 l7.6 0 l0 4 l-12 0 l0 -28 l12 0 l0 4 l-7.6 0 z M80.27199999999999 40 l0 -28 l4.4 0 l0 28 l-4.4 0 z M101.6 40 l-5.4 -20.28 l-0.08 0 l0 20.28 l-3.96 0 l0 -28 l5.52 0 l4.44 16.76 l0.08 0 l0 -16.76 l3.92 0 l0 28 l-4.52 0 z M120.24799999999999 12 c4.56 0 6.52 2.12 6.52 6.44 l0 1 c0 2.88 -0.88 4.68 -2.84 5.6 l0 0.08 c2.36 0.92 3.28 3 3.28 5.96 l0 2.28 c0 4.32 -2.28 6.64 -6.68 6.64 l-6.92 0 l0 -28 l6.64 0 z M119.96799999999999 27.4 l-1.96 0 l0 8.6 l2.52 0 c1.48 0 2.28 -0.68 2.28 -2.76 l0 -2.44 c0 -2.6 -0.84 -3.4 -2.84 -3.4 z M120.128 16 l-2.12 0 l0 7.4 l1.72 0 c1.64 0 2.64 -0.72 2.64 -2.96 l0 -1.56 c0 -2 -0.68 -2.88 -2.24 -2.88 z M133.976 12 l4.4 0 l0 21.6 c0 2 0.88 2.72 2.28 2.72 s2.28 -0.72 2.28 -2.72 l0 -21.6 l4.16 0 l0 21.32 c0 4.48 -2.24 7.04 -6.56 7.04 s-6.56 -2.56 -6.56 -7.04 l0 -21.32 z M153.86399999999998 18.72 c0 -4.48 2.2 -7.04 6.48 -7.04 s6.48 2.56 6.48 7.04 l0 0.88 l-4.16 0 l0 -1.16 c0 -2 -0.8 -2.76 -2.2 -2.76 s-2.2 0.76 -2.2 2.76 c0 2.04 0.88 3.56 3.76 6.08 c3.68 3.24 4.84 5.56 4.84 8.76 c0 4.48 -2.24 7.04 -6.56 7.04 s-6.56 -2.56 -6.56 -7.04 l0 -1.72 l4.16 0 l0 2 c0 2 0.88 2.72 2.28 2.72 s2.28 -0.72 2.28 -2.72 c0 -2.04 -0.88 -3.56 -3.76 -6.08 c-3.68 -3.24 -4.84 -5.56 -4.84 -8.76 z M173.712 40 l0 -28 l4.4 0 l0 28 l-4.4 0 z M195.04 40 l-5.4 -20.28 l-0.08 0 l0 20.28 l-3.96 0 l0 -28 l5.52 0 l4.44 16.76 l0.08 0 l0 -16.76 l3.92 0 l0 28 l-4.52 0 z M211.44799999999998 16 l0 7.8 l6.04 0 l0 4 l-6.04 0 l0 8.2 l7.6 0 l0 4 l-12 0 l0 -28 l12 0 l0 4 l-7.6 0 z M225.53599999999997 18.72 c0 -4.48 2.2 -7.04 6.48 -7.04 s6.48 2.56 6.48 7.04 l0 0.88 l-4.16 0 l0 -1.16 c0 -2 -0.8 -2.76 -2.2 -2.76 s-2.2 0.76 -2.2 2.76 c0 2.04 0.88 3.56 3.76 6.08 c3.68 3.24 4.84 5.56 4.84 8.76 c0 4.48 -2.24 7.04 -6.56 7.04 s-6.56 -2.56 -6.56 -7.04 l0 -1.72 l4.16 0 l0 2 c0 2 0.88 2.72 2.28 2.72 s2.28 -0.72 2.28 -2.72 c0 -2.04 -0.88 -3.56 -3.76 -6.08 c-3.68 -3.24 -4.84 -5.56 -4.84 -8.76 z M244.82399999999998 18.72 c0 -4.48 2.2 -7.04 6.48 -7.04 s6.48 2.56 6.48 7.04 l0 0.88 l-4.16 0 l0 -1.16 c0 -2 -0.8 -2.76 -2.2 -2.76 s-2.2 0.76 -2.2 2.76 c0 2.04 0.88 3.56 3.76 6.08 c3.68 3.24 4.84 5.56 4.84 8.76 c0 4.48 -2.24 7.04 -6.56 7.04 s-6.56 -2.56 -6.56 -7.04 l0 -1.72 l4.16 0 l0 2 c0 2 0.88 2.72 2.28 2.72 s2.28 -0.72 2.28 -2.72 c0 -2.04 -0.88 -3.56 -3.76 -6.08 c-3.68 -3.24 -4.84 -5.56 -4.84 -8.76 z"></path></g>
			</g>
		</svg>
	